<svg width="107" height="101" viewBox="0 0 107 101" fill="none" xmlns="http://www.w3.org/2000/svg">
<g clip-path="url(#clip0_108_257)">
<path fill-rule="evenodd" clip-rule="evenodd" d="M31.0766 98.999C87.0437 105.392 144.085 36.2238 75.8025 23.4576C60.6618 20.6096 55.5485 3.82045 46.6949 1.19154C6.70417 -10.4195 -15.042 93.7014 31.0766 98.999Z" fill="#AAD7DA"/>
<path d="M72.8782 97.2864C79.4438 95.0359 84.7958 90.6543 87.2828 83.6041C89.352 77.5297 89.352 69.5035 86.0692 59.0875C84.1791 53.1923 85.6514 47.4764 87.0441 41.7008C89.2326 32.9377 91.4809 23.9955 81.6324 14.3959C77.494 10.3729 72.0227 8.3813 64.5617 8.0029C57.0212 7.64441 47.5508 8.97878 35.5138 11.7073C14.3048 16.6464 4.15786 26.6244 1.67088 38.2354C0.337854 44.5089 1.19338 51.2605 3.74005 57.9323C6.28672 64.5644 10.4847 71.1366 15.8367 77.0318C30.5199 93.1637 53.4996 103.978 72.8782 97.2864ZM88.1781 83.9227C85.6315 91.3514 80.0407 95.9122 73.1766 98.2822C53.4399 105.093 29.9827 94.1396 15.021 77.7288C9.60933 71.774 5.35161 65.0822 2.74526 58.3307C0.138896 51.4397 -0.756419 44.5089 0.69598 37.9964C3.24265 26.0667 13.5686 15.7303 35.275 10.7513C47.4314 7.96306 56.9615 6.60878 64.6214 6.98718C72.341 7.34567 78.0511 9.47668 82.3089 13.679C92.6348 23.7166 90.3269 32.8979 88.0787 41.9597C86.6859 47.6158 85.2932 53.2122 87.0441 58.8086C90.3667 69.384 90.3667 77.6492 88.1781 83.9227Z" fill="#38A0A7"/>
<path fill-rule="evenodd" clip-rule="evenodd" d="M48.0563 35.1441C51.0875 35.1441 53.9666 35.7886 56.562 36.9464L55.2048 38.2894L56.1917 42.8253L54.7383 44.2619C52.7739 43.1319 50.4916 42.4845 48.0563 42.4845C40.697 42.4845 34.7312 48.3935 34.7312 55.6827C34.7312 62.9719 40.697 68.8809 48.0563 68.8809C55.4156 68.8809 61.3814 62.9719 61.3814 55.6827C61.3814 53.2806 60.7333 51.0283 59.6011 49.0882L61.0442 47.6619L65.6627 48.6477L67.0024 47.3222C68.1529 49.8761 68.7925 52.7055 68.7925 55.6827C68.7925 67.0258 59.5086 76.2213 48.0564 76.2213C36.6042 76.2213 27.3203 67.0258 27.3203 55.6827C27.3203 44.3395 36.6042 35.1441 48.0563 35.1441ZM48.0563 52.0997C46.0578 52.0997 44.439 53.7031 44.439 55.6826C44.439 57.6621 46.0578 59.2655 48.0563 59.2655C50.0549 59.2655 51.6737 57.6621 51.6737 55.6826C51.6737 55.108 51.5371 54.5654 51.2947 54.0842L60.3064 45.177L64.9234 46.1626L71.5369 39.6121C71.664 39.4862 71.7084 39.3139 71.6575 39.143C71.6066 38.972 71.4752 38.8512 71.2993 38.8136L66.2266 37.7308L65.1332 32.7065C65.0953 32.5324 64.9732 32.4021 64.8007 32.3517C64.6282 32.3014 64.4543 32.3453 64.3272 32.4712L57.7137 39.0217L58.701 43.5592L49.6769 52.4786C49.1895 52.2362 48.639 52.0997 48.0563 52.0997ZM48.0563 44.7595C41.9656 44.7595 37.0281 49.6499 37.0281 55.6827C37.0281 61.7154 41.9656 66.6059 48.0563 66.6059C54.147 66.6059 59.0846 61.7154 59.0846 55.6827C59.0846 53.9133 58.6594 52.2424 57.9053 50.7642L53.8923 54.7307C53.9435 55.0406 53.9705 55.3585 53.9705 55.6827C53.9705 58.9179 51.3226 61.5405 48.0563 61.5405C44.7901 61.5405 42.1421 58.9178 42.1421 55.6827C42.1421 52.4475 44.79 49.8248 48.0563 49.8248C48.3879 49.8248 48.713 49.8523 49.0297 49.9043L53.0428 45.9377C51.5454 45.1844 49.851 44.7595 48.0563 44.7595Z" fill="#38A0A7"/>
</g>
<defs>
<clipPath id="clip0_108_257">
<rect width="107" height="100.038" fill="white" transform="translate(0 0.29541)"/>
</clipPath>
</defs>
</svg>
