<svg width="107" height="101" viewBox="0 0 107 101" fill="none" xmlns="http://www.w3.org/2000/svg">
<g clip-path="url(#clip0_108_272)">
<path fill-rule="evenodd" clip-rule="evenodd" d="M31.0766 98.999C87.0437 105.392 144.085 36.2238 75.8025 23.4576C60.6618 20.6096 55.5485 3.82045 46.6949 1.19154C6.70417 -10.4195 -15.042 93.7014 31.0766 98.999Z" fill="#AAD7DA"/>
<path d="M72.8782 97.2864C79.4438 95.0359 84.7958 90.6543 87.2828 83.6041C89.352 77.5297 89.352 69.5035 86.0692 59.0875C84.1791 53.1923 85.6514 47.4764 87.0441 41.7008C89.2326 32.9377 91.4809 23.9955 81.6324 14.3959C77.494 10.3729 72.0227 8.3813 64.5617 8.0029C57.0212 7.64441 47.5508 8.97878 35.5138 11.7073C14.3048 16.6464 4.15786 26.6244 1.67088 38.2354C0.337854 44.5089 1.19338 51.2605 3.74005 57.9323C6.28672 64.5644 10.4847 71.1366 15.8367 77.0318C30.5199 93.1637 53.4996 103.978 72.8782 97.2864ZM88.1781 83.9227C85.6315 91.3514 80.0407 95.9122 73.1766 98.2822C53.4399 105.093 29.9827 94.1396 15.021 77.7288C9.60933 71.774 5.35161 65.0822 2.74526 58.3307C0.138896 51.4397 -0.756419 44.5089 0.69598 37.9964C3.24265 26.0667 13.5686 15.7303 35.275 10.7513C47.4314 7.96306 56.9615 6.60878 64.6214 6.98718C72.341 7.34567 78.0511 9.47668 82.3089 13.679C92.6348 23.7166 90.3269 32.8979 88.0787 41.9597C86.6859 47.6158 85.2932 53.2122 87.0441 58.8086C90.3667 69.384 90.3667 77.6492 88.1781 83.9227Z" fill="#38A0A7"/>
<g clip-path="url(#clip1_108_272)">
<g clip-path="url(#clip2_108_272)">
<path d="M49.5011 78.5324C51.8536 78.5324 53.8253 76.8825 54.2971 74.6892H44.7051C45.1769 76.8825 47.1486 78.5324 49.5011 78.5324Z" fill="#38A0A7"/>
<path d="M41.9565 68.742V71.8396H57.0457V68.8332C57.0457 68.0533 57.1531 67.2868 57.3593 66.5535H41.6621C41.8558 67.2573 41.9565 67.9925 41.9565 68.742Z" fill="#38A0A7"/>
<path d="M60.8236 39.5255C57.8669 36.56 53.9244 34.8958 49.721 34.8398C45.4697 34.7818 41.4486 36.3843 38.3884 39.3498C35.3301 42.3125 33.6259 46.2583 33.5904 50.4606C33.5511 55.1017 35.565 59.5034 39.1153 62.5364C39.5296 62.8898 39.9026 63.2811 40.2316 63.7038H58.7895C59.128 63.265 59.5126 62.8584 59.9384 62.4918C63.4167 59.4939 65.4115 55.1587 65.4115 50.5974C65.4115 46.4255 63.7821 42.4939 60.8236 39.5255ZM59.9729 50.3352C59.7936 50.6192 55.5154 57.2864 49.5005 57.2864C43.4855 57.2864 39.2074 50.6192 39.028 50.3352L38.5514 49.58L39.028 48.8249C39.2074 48.5409 43.4855 41.8736 49.5005 41.8736C55.5154 41.8736 59.7936 48.5409 59.9729 48.8249L60.4495 49.58L59.9729 50.3352Z" fill="#38A0A7"/>
<path d="M49.5006 44.7233C46.0855 44.7233 43.1691 48.0469 42.0059 49.58C43.1691 51.1122 46.0855 54.4368 49.5006 54.4368C52.9156 54.4368 55.832 51.1122 56.9953 49.58C55.8329 48.0488 52.9166 44.7233 49.5006 44.7233ZM50.9391 51.0048H48.062V48.1552H50.9391V51.0048Z" fill="#38A0A7"/>
<path d="M31.209 32.0359L33.2431 30.0212L36.2264 32.9761L34.1923 34.9908L31.209 32.0359Z" fill="#38A0A7"/>
<path d="M25.0059 44.2714L25.8632 41.55L29.893 42.7954L29.0356 45.5168L25.0059 44.2714Z" fill="#38A0A7"/>
<path d="M31.2051 68.9835L34.1884 66.0286L36.2225 68.0433L33.2391 70.9982L31.2051 68.9835Z" fill="#38A0A7"/>
<path d="M25 56.7721L29.0298 55.5266L29.8871 58.248L25.8574 59.4935L25 56.7721Z" fill="#38A0A7"/>
<path d="M62.7676 32.9794L65.7509 30.0245L67.785 32.0392L64.8016 34.9941L62.7676 32.9794Z" fill="#38A0A7"/>
<path d="M69.1348 42.8047L73.1645 41.5592L74.0219 44.2806L69.9921 45.5261L69.1348 42.8047Z" fill="#38A0A7"/>
<path d="M62.7637 68.0461L64.7977 66.0314L67.781 68.9863L65.747 71.001L62.7637 68.0461Z" fill="#38A0A7"/>
<path d="M69.125 58.2151L69.9824 55.4937L74.0121 56.7392L73.1548 59.4606L69.125 58.2151Z" fill="#38A0A7"/>
</g>
</g>
</g>
<defs>
<clipPath id="clip0_108_272">
<rect width="107" height="100.038" fill="white" transform="translate(0 0.29541)"/>
</clipPath>
<clipPath id="clip1_108_272">
<rect width="49" height="48.5333" fill="white" transform="translate(25 30.0096)"/>
</clipPath>
<clipPath id="clip2_108_272">
<rect width="49" height="48.5333" fill="white" transform="translate(25 30.0096)"/>
</clipPath>
</defs>
</svg>
