<svg width="107" height="101" viewBox="0 0 107 101" fill="none" xmlns="http://www.w3.org/2000/svg">
<g clip-path="url(#clip0_108_302)">
<path fill-rule="evenodd" clip-rule="evenodd" d="M31.0766 98.999C87.0437 105.392 144.085 36.2238 75.8025 23.4576C60.6618 20.6096 55.5485 3.82045 46.6949 1.19154C6.70417 -10.4195 -15.042 93.7014 31.0766 98.999Z" fill="#AAD7DA"/>
<path d="M72.8782 97.2864C79.4438 95.0359 84.7958 90.6543 87.2828 83.6041C89.352 77.5297 89.352 69.5035 86.0692 59.0875C84.1791 53.1923 85.6514 47.4764 87.0441 41.7008C89.2326 32.9377 91.4809 23.9955 81.6324 14.3959C77.494 10.3729 72.0227 8.3813 64.5617 8.0029C57.0212 7.64441 47.5508 8.97878 35.5138 11.7073C14.3048 16.6464 4.15786 26.6244 1.67088 38.2354C0.337854 44.5089 1.19338 51.2605 3.74005 57.9323C6.28672 64.5644 10.4847 71.1366 15.8367 77.0318C30.5199 93.1637 53.4996 103.978 72.8782 97.2864ZM88.1781 83.9227C85.6315 91.3514 80.0407 95.9122 73.1766 98.2822C53.4399 105.093 29.9827 94.1396 15.021 77.7288C9.60933 71.774 5.35161 65.0822 2.74526 58.3307C0.138896 51.4397 -0.756419 44.5089 0.69598 37.9964C3.24265 26.0667 13.5686 15.7303 35.275 10.7513C47.4314 7.96306 56.9615 6.60878 64.6214 6.98718C72.341 7.34567 78.0511 9.47668 82.3089 13.679C92.6348 23.7166 90.3269 32.8979 88.0787 41.9597C86.6859 47.6158 85.2932 53.2122 87.0441 58.8086C90.3667 69.384 90.3667 77.6492 88.1781 83.9227Z" fill="#38A0A7"/>
<g clip-path="url(#clip1_108_302)">
<path d="M42.7227 48.8289H55.2762L48.9994 37.9492L42.7227 48.8289Z" fill="#38A0A7"/>
<path d="M58.8047 48.8288H72.7297C72.6797 48.7422 72.6233 48.6594 72.5609 48.5812L64.9254 39.1278L58.8047 48.8288Z" fill="#38A0A7"/>
<path d="M57.0389 47.8895L63.3047 37.96C63.2041 37.9434 63.1024 37.9345 63.0004 37.9335H51.2949L57.0389 47.8895Z" fill="#38A0A7"/>
<path d="M42.2812 50.8097L49.0005 77.4305L55.7197 50.8097H42.2812Z" fill="#38A0A7"/>
<path d="M57.7797 50.8097L51.4922 75.7202L72.5257 51.0992C72.6027 51.0089 72.6714 50.912 72.7309 50.8097H57.7797Z" fill="#38A0A7"/>
<path d="M40.2188 50.8097H25.2676C25.3272 50.9119 25.3959 51.0086 25.4728 51.0987L46.5063 75.7202L40.2188 50.8097Z" fill="#38A0A7"/>
<path d="M40.9611 47.8895L46.7051 37.9335H34.9996C34.8977 37.934 34.7959 37.9422 34.6953 37.9582L40.9611 47.8895Z" fill="#38A0A7"/>
<path d="M39.1958 48.8288L33.075 39.1278L25.4383 48.5812C25.3759 48.6594 25.3195 48.7422 25.2695 48.8288H39.1958Z" fill="#38A0A7"/>
</g>
</g>
<defs>
<clipPath id="clip0_108_302">
<rect width="107" height="100.038" fill="white" transform="translate(0 0.29541)"/>
</clipPath>
<clipPath id="clip1_108_302">
<rect width="49" height="48.5333" fill="white" transform="translate(25 30.0096)"/>
</clipPath>
</defs>
</svg>
